<?xml version="1.0" standalone="no"?><!DOCTYPE svg PUBLIC "-//W3C//DTD SVG 1.1//EN" "http://www.w3.org/Graphics/SVG/1.1/DTD/svg11.dtd"><svg class="icon" height="512" viewBox="0 0 1024 1024" version="1.1" xmlns="http://www.w3.org/2000/svg"><path d="M511.976 64C320.946 64 157.868 183.608 93.454 352l69.278 0c18.792-40.968 44.914-78.7 77.736-111.524C312.994 167.946 409.418 128 511.976 128c102.572 0 199.008 39.946 271.542 112.478C856.054 313.01 896 409.438 896 512c0 102.57-39.946 199.002-112.478 271.53C710.988 856.058 614.55 896 511.976 896c-102.562 0-198.986-39.942-271.51-112.468C207.642 750.708 181.52 712.972 162.724 672L93.45 672c64.412 168.402 227.492 288 418.528 288C759.406 960 960 759.43 960 512 960 264.596 759.406 64 511.976 64zM413.726 647.766 458.98 693.02 640 512 458.98 330.98 413.724 376.236 517.49 480 64 480 64 544 517.49 544Z" /></svg>